<svg width="21" height="17" viewBox="0 0 21 17" fill="none" xmlns="http://www.w3.org/2000/svg">
<path d="M1.55293 14.375C-0.0791912 13.8855 -0.349379 12.8771 0.391059 12.2913C0.924559 11.9248 1.53781 11.6057 2.18681 11.3656L2.24662 11.3462L7.07081 9.53781V11.615L3.61268 12.9368C3.007 13.1804 2.90387 13.5046 3.40712 13.6785C3.65806 13.7454 3.94543 13.7842 4.24175 13.7842C4.66456 13.7842 5.0695 13.7058 5.44418 13.5628L5.42012 13.5707L7.08525 12.9368V14.7998C6.98212 14.8264 6.86525 14.8393 6.75043 14.8652C6.21762 14.9629 5.60437 15.019 4.97875 15.019C3.75637 15.019 2.58212 14.8048 1.48762 14.4109L1.56325 14.4347L1.55293 14.375ZM11.719 14.5877L17.1282 12.5443C17.7422 12.3129 17.8377 11.983 17.3393 11.8098C17.0897 11.7458 16.8037 11.7092 16.5088 11.7092C16.0812 11.7092 15.6701 11.7868 15.2892 11.9284L15.3146 11.9205L11.7018 13.2674V11.1234L11.9081 11.0472C12.6299 10.7963 13.4783 10.6016 14.3535 10.5002L14.4106 10.4945C14.7323 10.4585 15.1049 10.4384 15.4824 10.4384C16.7728 10.4384 18.0103 10.6763 19.1557 11.1133L19.0814 11.0882C20.6689 11.6279 20.8339 12.4099 20.4351 12.949C20.0508 13.3493 19.5861 13.6663 19.0684 13.8704L19.0416 13.8798L11.7011 16.6707V14.6086L11.719 14.5877ZM7.71912 0V15.76L11.0824 16.8928V3.67497C11.0824 3.05541 11.3436 2.64141 11.7644 2.78516C12.3109 2.94687 12.4175 3.51612 12.4175 4.13712V9.41419C14.5144 10.4858 16.1651 9.41203 16.1651 6.58303C16.1651 3.67569 15.1977 2.38409 12.3522 1.34909C11.125 0.883344 9.57468 0.419031 7.98862 0.05175L7.72118 0H7.71912Z" fill="#F4EAFA"/>
</svg>
