<svg width="19" height="17" viewBox="0 0 19 17" fill="none" xmlns="http://www.w3.org/2000/svg">
<path fill-rule="evenodd" clip-rule="evenodd" d="M8.68857 8.86897C8.69333 10.568 8.69905 13.4548 8.70381 15.6984C12.1371 16.1139 15.5705 16.5421 18.9981 17C18.9981 14.3214 19.0019 11.6546 18.9981 9.10596C15.5619 9.10596 12.1267 8.86897 8.68857 8.86897ZM0 8.8698V14.6384C2.58952 14.9511 5.17905 15.2498 7.76381 15.5914C7.76857 13.3596 7.7619 11.1273 7.7619 8.89553C5.17429 8.89978 2.58762 8.86216 0 8.8698ZM0 2.41677V8.16921C2.58952 8.17516 5.17905 8.1401 7.76857 8.14265C7.76667 5.91603 7.76667 3.69213 7.76381 1.4655C5.17238 1.75519 2.58095 2.06167 0 2.41677ZM19 8.05093C15.5686 8.06282 12.1371 8.10964 8.70381 8.11899C8.7019 5.85584 8.7019 3.59539 8.70381 1.33394C12.1305 0.865841 15.5648 0.425612 18.9981 0C19 2.68452 18.9981 5.36641 19 8.05093Z" fill="#F4EAFA"/>
</svg>
