<svg width="20" height="20" viewBox="0 0 20 20" fill="none" xmlns="http://www.w3.org/2000/svg">
<path d="M9.85688 2.91703C8.61788 2.17875 7.16231 1.65572 5.60897 1.44113L5.54859 1.43456C5.50266 1.43128 5.44884 1.42931 5.39503 1.42931C4.99275 1.42931 4.61541 1.53431 4.28794 1.71872L4.29909 1.71281C5.84587 0.6405 7.76213 0 9.82866 0C9.83391 0 9.83916 0 9.84441 0H9.85688C9.86016 0 9.86409 0 9.86869 0C11.9405 0 13.8626 0.6405 15.4475 1.73381L15.4147 1.71216C15.101 1.53366 14.7249 1.428 14.324 1.428C14.2682 1.428 14.2131 1.42997 14.1586 1.43391L14.1658 1.43325C12.5521 1.65375 11.0965 2.17481 9.80306 2.94066L9.85688 2.91112V2.91703ZM3.00169 2.814C2.97478 2.82319 2.95116 2.835 2.9295 2.84944L2.93081 2.84878C1.12088 4.63575 0 7.11703 0 9.86016C0 12.2122 0.82425 14.3719 2.20041 16.0663L2.18597 16.0479C1.03491 13.9079 5.12597 7.87434 7.18003 5.44359C4.86347 3.13294 3.717 2.77791 3.23269 2.77791C3.22613 2.77791 3.21891 2.77725 3.21169 2.77725C3.13622 2.77725 3.06403 2.79103 2.99775 2.81662L3.00169 2.81531V2.814ZM12.5363 5.44359C14.5898 7.87566 18.6834 13.9145 17.5271 16.0493C18.8888 14.3732 19.7138 12.2135 19.7138 9.86081C19.7138 7.11703 18.5922 4.63575 16.7823 2.84944L16.781 2.84812C16.7619 2.83434 16.7396 2.82253 16.7153 2.814L16.7134 2.81334C16.6478 2.78972 16.5716 2.77659 16.4929 2.77659C16.4896 2.77659 16.4857 2.77659 16.4824 2.77659C15.9961 2.77659 14.8523 3.13359 12.5363 5.44359ZM3.36919 17.2764C5.09316 18.7898 7.36772 19.7138 9.85819 19.7138C12.3487 19.7138 14.6232 18.7904 16.3583 17.2673L16.3472 17.2771C17.8887 15.7067 12.8021 10.1233 9.85688 7.89928C6.91491 10.124 1.82437 15.706 3.36919 17.2764Z" fill="#F4EAFA"/>
</svg>
