<?xml version="1.0" encoding="UTF-8" standalone="no"?>
<!-- Created with Inkscape (http://www.inkscape.org/) -->

<svg
   xmlns:dc="http://purl.org/dc/elements/1.1/"
   xmlns:cc="http://creativecommons.org/ns#"
   xmlns:rdf="http://www.w3.org/1999/02/22-rdf-syntax-ns#"
   xmlns:svg="http://www.w3.org/2000/svg"
   xmlns="http://www.w3.org/2000/svg"
   xmlns:sodipodi="http://sodipodi.sourceforge.net/DTD/sodipodi-0.dtd"
   xmlns:inkscape="http://www.inkscape.org/namespaces/inkscape"
   width="32"
   height="32"
   viewBox="0 0 8.4666667 8.4666667"
   version="1.1"
   id="svg8"
   inkscape:version="0.92.2 (5c3e80d, 2017-08-06)"
   sodipodi:docname="Playlog_logo.svg">
  <defs
     id="defs2">
    <linearGradient
       y2="219.34656"
       y1="48.343502"
       x2="139.28905"
       x1="-2.0007203"
       id="IconifyId1813088fe1fbc01fb466"
       gradientTransform="scale(1.0592958,0.94402338)"
       gradientUnits="userSpaceOnUse">
      <stop
         id="stop45"
         stop-color="#41D1FF"
         offset="0%" />
      <stop
         id="stop47"
         stop-color="#BD34FE"
         offset="100%" />
    </linearGradient>
    <linearGradient
       y2="141.10861"
       y1="3.5533929"
       x2="199.00609"
       x1="188.00648"
       id="IconifyId1813088fe1fbc01fb467"
       gradientTransform="scale(0.74063538,1.3501921)"
       gradientUnits="userSpaceOnUse">
      <stop
         id="stop50"
         stop-color="#FFEA83"
         offset="0%" />
      <stop
         id="stop52"
         stop-color="#FFDD35"
         offset="8.333%" />
      <stop
         id="stop54"
         stop-color="#FFA800"
         offset="100%" />
    </linearGradient>
    <linearGradient
       y2="219.34656"
       y1="48.343502"
       x2="139.28905"
       x1="-2.0007203"
       id="IconifyId1813088fe1fbc01fb466-0"
       gradientTransform="scale(1.0592958,0.94402338)"
       gradientUnits="userSpaceOnUse">
      <stop
         id="stop80"
         stop-color="#41D1FF"
         offset="0%" />
      <stop
         id="stop82"
         stop-color="#BD34FE"
         offset="100%" />
    </linearGradient>
    <linearGradient
       y2="141.10861"
       y1="3.5533929"
       x2="199.00609"
       x1="188.00648"
       id="IconifyId1813088fe1fbc01fb467-9"
       gradientTransform="scale(0.74063538,1.3501921)"
       gradientUnits="userSpaceOnUse">
      <stop
         id="stop85"
         stop-color="#FFEA83"
         offset="0%" />
      <stop
         id="stop87"
         stop-color="#FFDD35"
         offset="8.333%" />
      <stop
         id="stop89"
         stop-color="#FFA800"
         offset="100%" />
    </linearGradient>
  </defs>
  <sodipodi:namedview
     id="base"
     pagecolor="#ffffff"
     bordercolor="#666666"
     borderopacity="1.0"
     inkscape:pageopacity="0.0"
     inkscape:pageshadow="2"
     inkscape:zoom="15.839192"
     inkscape:cx="7.8938926"
     inkscape:cy="18.085576"
     inkscape:document-units="mm"
     inkscape:current-layer="layer1"
     showgrid="false"
     inkscape:window-width="1920"
     inkscape:window-height="1009"
     inkscape:window-x="-8"
     inkscape:window-y="-8"
     inkscape:window-maximized="1"
     units="px"
     showguides="true"
     inkscape:guide-bbox="true"
     inkscape:snap-center="true"
     inkscape:snap-grids="true"
     inkscape:snap-object-midpoints="true"
     inkscape:snap-others="true" />
  <metadata
     id="metadata5">
    <rdf:RDF>
      <cc:Work
         rdf:about="">
        <dc:format>image/svg+xml</dc:format>
        <dc:type
           rdf:resource="http://purl.org/dc/dcmitype/StillImage" />
        <dc:title></dc:title>
      </cc:Work>
    </rdf:RDF>
  </metadata>
  <g
     inkscape:label="Capa 1"
     inkscape:groupmode="layer"
     id="layer1"
     transform="translate(0,-288.5333)">
    <g
       id="g21"
       transform="matrix(0.0805606,0,0,0.07880981,40.569258,275.85965)">
      <path
         style="fill:#9408f9;stroke-width:0.35277775"
         d="m -468.15411,267.76945 c -0.78717,-0.44583 -1.75323,-1.41189 -2.19906,-2.19906 -0.77991,-1.37705 -0.79554,-1.63008 -0.81642,-13.22197 -0.0223,-12.36408 -0.15431,-13.59649 -1.63164,-15.22892 -1.65631,-1.8302 -1.93621,-1.86874 -14.93923,-2.05719 -12.15176,-0.17612 -12.1727,-0.17772 -13.35847,-1.02344 -0.6532,-0.46587 -1.48315,-1.49775 -1.84434,-2.29305 -0.60864,-1.34019 -0.65726,-2.59969 -0.66445,-17.20985 -0.005,-10.32836 0.122,-16.10627 0.36853,-16.75694 0.50697,-1.33805 1.6457,-2.51025 3.22565,-3.3205 1.20454,-0.61773 2.19145,-0.67122 12.38277,-0.67122 11.79984,0 12.71028,-0.10834 14.48584,-1.72369 1.92801,-1.75407 1.98502,-2.17976 1.98502,-14.82257 0,-7.38166 0.13745,-11.9928 0.37628,-12.62313 0.50697,-1.33804 1.64569,-2.51025 3.22564,-3.3205 1.22699,-0.62924 2.26263,-0.67122 16.55737,-0.67122 14.81779,0 15.29217,0.0211 16.79427,0.7483 0.93037,0.45038 1.92274,1.31758 2.49263,2.17823 l 0.94686,1.42994 0.17639,12.37385 c 0.20132,14.12242 0.20359,14.13365 3.16963,15.63704 1.33629,0.67733 2.12421,0.79375 5.37179,0.79375 2.09319,0 3.8058,0.1328 3.8058,0.29512 0,0.2608 -3.02472,3.2123 -18.04523,17.60835 -5.18242,4.96697 -4.58566,5.06234 -11.5881,-1.85208 -5.50016,-5.43103 -5.54844,-5.46806 -7.13097,-5.46806 -2.65302,0 -4.56372,2.31727 -3.94462,4.78396 0.15463,0.61607 3.11202,3.87419 8.04133,8.85902 l 7.79676,7.88456 1.7188,-0.004 c 1.6636,-0.004 1.81088,-0.0926 4.58611,-2.76214 6.64692,-6.39372 20.90405,-19.99436 25.6763,-24.49399 4.80267,-4.52832 5.23556,-4.85018 6.51363,-4.84294 1.58952,0.009 3.90599,0.98288 4.84217,2.03574 1.52738,1.71773 1.61052,2.66916 1.6247,18.59401 0.008,8.91892 -0.12961,15.68465 -0.33384,16.41981 -0.39406,1.41845 -2.16344,3.28643 -3.64042,3.84327 -0.6235,0.23507 -5.21874,0.3773 -12.34722,0.38216 -13.13451,0.009 -13.55258,0.0888 -15.20081,2.90126 l -0.91581,1.56272 v 11.78939 c 0,6.61207 -0.15122,12.31667 -0.34435,12.99007 -0.42479,1.48115 -1.53998,2.71066 -3.25756,3.59149 -1.22898,0.63026 -2.26254,0.67087 -16.93334,0.66542 -15.55561,-0.006 -15.63065,-0.009 -17.02839,-0.80094 z m 25.481,-8.35095 c 0.24254,-0.008 0.75848,-0.33203 1.14653,-0.72008 0.6656,-0.6656 0.70556,-1.17593 0.70556,-9.01187 v -8.30631 l -0.86591,-0.86591 -0.86591,-0.86591 h -8.42121 -8.4212 l -0.85525,0.911 c -0.83028,0.88441 -0.85584,1.07745 -0.87567,6.61458 -0.0267,7.4635 0.17656,10.53699 0.74872,11.31946 0.2569,0.35134 0.99189,0.74655 1.63329,0.87824 0.87485,0.17962 11.13159,0.20948 16.07105,0.0468 z m -32.39296,-36.22182 c 0.69241,-0.88025 0.73116,-1.36729 0.73116,-9.18826 v -8.25874 l -0.86591,-0.8659 -0.86591,-0.86592 h -8.49873 -8.49874 l -0.88372,0.88372 -0.88371,0.88372 0.106,8.49661 c 0.10535,8.44492 0.11107,8.5007 0.93883,9.17045 0.76871,0.62196 1.49328,0.67384 9.4112,0.67384 h 8.57837 z m 33.37914,-34.86139 0.86591,-0.86591 v -8.32235 -8.32235 l -0.86591,-0.8659 -0.86591,-0.86591 h -8.32235 -8.32235 l -0.8659,0.86591 -0.86591,0.8659 v 8.32235 8.32235 l 0.86591,0.86591 0.8659,0.86591 h 8.32235 8.32235 z"
         id="path25"
         inkscape:connector-curvature="0" />
    </g>
    <g
       id="g113"
       transform="matrix(0.03294423,0,0,0.03294423,-19.335914,293.48651)">
      <path
         style="fill:url(#IconifyId1813088fe1fbc01fb466-0)"
         id="path94"
         d="M 255.153,37.938 134.897,252.976 c -2.483,4.44 -8.862,4.466 -11.382,0.048 L 0.875,37.958 c -2.746,-4.814 1.371,-10.646 6.827,-9.67 l 120.385,21.517 a 6.537,6.537 0 0 0 2.322,-0.004 L 248.276,28.318 c 5.438,-0.991 9.574,4.796 6.877,9.62 z"
         inkscape:connector-curvature="0" />
      <path
         style="fill:url(#IconifyId1813088fe1fbc01fb467-9)"
         id="path96"
         d="M 185.432,0.063 96.44,17.501 a 3.268,3.268 0 0 0 -2.634,3.014 l -5.474,92.456 a 3.268,3.268 0 0 0 3.997,3.378 l 24.777,-5.718 c 2.318,-0.535 4.413,1.507 3.936,3.838 l -7.361,36.047 c -0.495,2.426 1.782,4.5 4.151,3.78 l 15.304,-4.649 c 2.372,-0.72 4.652,1.36 4.15,3.788 l -11.698,56.621 c -0.732,3.542 3.979,5.473 5.943,2.437 l 1.313,-2.028 72.516,-144.72 c 1.215,-2.423 -0.88,-5.186 -3.54,-4.672 l -25.505,4.922 c -2.396,0.462 -4.435,-1.77 -3.759,-4.114 L 189.202,4.176 c 0.677,-2.35 -1.37,-4.583 -3.769,-4.113 z"
         inkscape:connector-curvature="0" />
    </g>
  </g>
</svg>
